PathFileType	4	(X/Y/Z)	E:\Qualisys_Data\Carbon_Farble_Plate\Data\Amateur_Runner\S14\T2\S14T2V21_c3d.trc
DataRate	CameraRate	NumFrames	NumMarkers	Units	OrigDataRate	OrigDataStartFrame	OrigNumFrames
200.000000	200.000000	5	39	mm	200.000000	0	303
Frame#	Time	LSHO			RSHO			LICST			RICST			LASIS			LHEEL			RASIS			LTROC			RTROC			SACR			LTH1			LSK4			LTH2			LTH3			RHM5			LSK2			LTH4			RTH1			LTOE			RTH2			RTH3			RTH4			LLEP			RLEP			LSK1			LSK3			RSK1			LHM5			RSK2			LFT1			RSK3			RSK4			LLME			RLME			RTOE			RHEEL			RFT1			RFT2			LFT2			
		X1	Y1	Z1	X2	Y2	Z2	X3	Y3	Z3	X4	Y4	Z4	X5	Y5	Z5	X6	Y6	Z6	X7	Y7	Z7	X8	Y8	Z8	X9	Y9	Z9	X10	Y10	Z10	X11	Y11	Z11	X12	Y12	Z12	X13	Y13	Z13	X14	Y14	Z14	X15	Y15	Z15	X16	Y16	Z16	X17	Y17	Z17	X18	Y18	Z18	X19	Y19	Z19	X20	Y20	Z20	X21	Y21	Z21	X22	Y22	Z22	X23	Y23	Z23	X24	Y24	Z24	X25	Y25	Z25	X26	Y26	Z26	X27	Y27	Z27	X28	Y28	Z28	X29	Y29	Z29	X30	Y30	Z30	X31	Y31	Z31	X32	Y32	Z32	X33	Y33	Z33	X34	Y34	Z34	X35	Y35	Z35	X36	Y36	Z36	X37	Y37	Z37	X38	Y38	Z38	X39	Y39	Z39	

1	0	-2569.876953125	1486.634887695312	-459.7180480957031	-2643.092529296875	1492.830322265625	-179.2482299804688	-2637.170654296875	1031.058959960938	-448.5741271972656	-2625.558349609375	1041.10791015625	-176.0105590820312	-2604.35595703125	975.7149658203125	-425.4708251953125	-3231.309814453125	411.1941528320312	-311.8087768554688	-2598.986328125	998.2793579101562	-196.1613616943359	-2758.206298828125	935.7921142578125	-466.3144226074219	-2724.176513671875	921.6695556640625	-133.8944244384766	-2769.13671875	1044.131225585938	-319.8991394042969	-2783.76123046875	705.9368286132812	-464.9539794921875	-3086.309326171875	501.4609375	-400.1937255859375	-2849.5712890625	736.5098876953125	-431.8298950195312	-2813.095703125	612.4730834960938	-442.7872924804688	-2308.773681640625	142.1501159667969	-139.2195587158203	-3004.345703125	554.3783569335938	-420.9969482421875	-2882.397705078125	644.9616088867188	-415.8517150878906	-2528.15625	737.8341674804688	-142.3852691650391	-3226.73291015625	159.3636779785156	-377.844970703125	-2602.24853515625	713.6319580078125	-128.5623016357422	-2496.8330078125	645.6778564453125	-167.6915283203125	-2573.45751953125	617.0108032226562	-147.9004516601562	-2893.359130859375	572.8587646484375	-429.8431701660156	-2524.46044921875	559.0316772460938	-148.8963928222656	-2960.590087890625	485.2293395996094	-431.1040344238281	-3047.156494140625	432.2195129394531	-416.4806823730469	-2483.029296875	446.25732421875	-145.0236053466797	-3260.017822265625	233.0591888427734	-423.8014526367188	-2565.36572265625	423.5381469726562	-156.3569641113281	-3253.57763671875	393.9047546386719	-287.8879699707031	-2461.48583984375	345.2117309570312	-155.5198516845703	-2539.699951171875	330.9769287109375	-166.3497924804688	-3212.361328125	373.5361328125	-386.3157653808594	-2448.471435546875	163.1412658691406	-178.4679718017578	-2239.798583984375	196.6081390380859	-187.5662994384766	-2486.094482421875	119.0747604370117	-238.6780548095703	-2457.000732421875	101.8471755981445	-268.1560974121094	-2473.469482421875	90.29213714599609	-214.0175170898438	-3266.511962890625	408.2910461425781	-339.3046875
2	0.005	-2549.821533203125	1485.390747070312	-459.5046997070312	-2623.37255859375	1491.44189453125	-178.8229675292969	-2616.837890625	1030.178100585938	-447.9923706054688	-2605.748046875	1039.285400390625	-175.7712860107422	-2584.138916015625	974.6707153320312	-425.9432373046875	-3212.924072265625	420.2859191894531	-312.6584777832031	-2578.93408203125	996.959716796875	-196.1308135986328	-2737.190673828125	933.9136352539062	-466.9482116699219	-2704.233154296875	918.6378173828124	-134.3347473144531	-2749.202880859375	1042.188842773438	-319.2730102539062	-2760.601806640625	703.6013793945312	-464.8002014160156	-3064.496337890625	505.5719604492188	-400.5697937011719	-2827.6123046875	734.1869506835938	-433.8427124023438	-2789.544189453125	610.1135864257812	-443.1613464355469	-2283.708251953125	144.7979431152344	-140.6560821533203	-2981.3701171875	556.1213989257812	-421.3329772949219	-2859.24951171875	641.9659423828125	-416.9802856445312	-2511.683837890625	734.0797729492188	-142.8038940429688	-3213.570556640625	168.3496704101562	-378.6671142578125	-2585.526611328125	709.773681640625	-127.8961410522461	-2480.38525390625	641.4732666015625	-168.8885345458984	-2557.505126953125	613.2066040039062	-148.2416076660156	-2869.68359375	570.7047119140625	-430.7794189453125	-2507.354736328125	554.8229370117188	-151.6271514892578	-2939.793701171875	485.6802978515625	-432.0707702636719	-3027.8876953125	435.4111633300781	-417.2782287597656	-2463.04541015625	444.4511108398438	-145.9227447509766	-3245.609130859375	243.3499145507812	-423.7498779296875	-2544.451171875	420.9713439941406	-157.8119812011719	-3235.9619140625	403.2236022949219	-288.3056640625	-2438.8828125	344.3382568359375	-156.65966796875	-2516.6162109375	328.1305236816406	-167.3015441894531	-3194.5849609375	382.1700134277344	-386.524658203125	-2422.395751953125	162.3624725341797	-179.8004302978516	-2215.109375	200.7995758056641	-187.6833801269531	-2459.00341796875	117.7010726928711	-239.755859375	-2429.63818359375	100.5832214355469	-269.1104125976562	-2445.957275390625	89.11846160888672	-215.7465515136719	-3247.590087890625	417.9736633300781	-339.1554260253906
3	0.01	-2529.505615234375	1483.705932617188	-458.9442749023438	-2603.51220703125	1489.65673828125	-178.3108062744141	-2597.3505859375	1029.233276367188	-448.6116027832031	-2585.58984375	1037.081420898438	-176.2830657958984	-2563.995361328125	973.9117431640624	-425.4314880371094	-3193.161865234375	428.794677734375	-312.7411193847656	-2558.556396484375	994.4659423828124	-196.5035400390625	-2715.72314453125	931.3167724609376	-466.9167785644531	-2685.480712890625	915.9058837890624	-134.5757141113281	-2729.605712890625	1039.856811523438	-319.4616394042969	-2737.38916015625	701.10498046875	-465.6016845703125	-3042.775634765625	509.3531188964844	-401.4645080566406	-2805.6982421875	731.4063720703125	-435.76953125	-2765.909423828125	607.3925170898438	-444.6761169433594	-2258.859375	146.6378936767578	-140.9446563720703	-2958.011474609375	557.3177490234375	-423.0402526855469	-2836.0869140625	638.2852783203125	-418.4244079589844	-2494.80859375	728.6529541015625	-143.2499237060547	-3200.02001953125	176.9324035644531	-377.837646484375	-2568.593994140625	705.495849609375	-126.9510879516602	-2463.764404296875	637.5145874023438	-169.6349029541016	-2540.92822265625	609.3982543945312	-147.8641815185547	-2845.713134765625	568.0281982421875	-431.9608154296875	-2489.685546875	551.806884765625	-153.0847320556641	-2918.6181640625	485.347900390625	-433.4151000976562	-3007.948486328125	437.8236083984375	-418.084228515625	-2442.1162109375	443.1551818847656	-147.6758117675781	-3229.849365234375	253.6284332275391	-424.8800659179688	-2523.695556640625	418.1416625976562	-158.8990478515625	-3217.22509765625	413.4345397949219	-288.8596496582031	-2416.96484375	343.280029296875	-158.1078796386719	-2495.087646484375	326.4593811035156	-169.1315612792969	-3175.96142578125	390.2034606933594	-387.0330505371094	-2398.525634765625	161.7689666748047	-181.2834625244141	-2191.098876953125	204.2206268310547	-188.7559661865234	-2435.412841796875	115.2180252075195	-243.0404815673828	-2403.5703125	99.282470703125	-270.6219482421875	-2419.887939453125	87.4111099243164	-216.7685852050781	-3228.8828125	428.8679504394531	-341.3193664550781
4	0.015	-2509.16455078125	1481.806274414062	-458.2737121582031	-2584.04833984375	1488.0576171875	-178.195556640625	-2577.662109375	1027.878784179688	-447.9418640136719	-2565.87841796875	1035.03759765625	-175.3521270751953	-2543.349365234375	972.4093017578124	-425.9570922851562	-3172.95849609375	437.45068359375	-313.2457275390625	-2539.975341796875	992.3327026367188	-196.4379425048828	-2694.720947265625	928.81494140625	-467.6760559082031	-2666.176025390625	912.2193603515624	-134.5622863769531	-2709.877685546875	1037.465942382812	-319.0372009277344	-2713.61865234375	698.2173461914062	-465.3528442382812	-3019.358154296875	511.7529296875	-401.8200988769531	-2782.77099609375	727.3050537109375	-437.1388854980469	-2742.538818359375	604.2648315429688	-445.2861022949219	-2235.347900390625	148.5730133056641	-142.1647186279297	-2933.23583984375	557.6319580078125	-423.9916687011719	-2812.62255859375	634.5514526367188	-419.8410949707031	-2476.8486328125	725.5872192382812	-141.988037109375	-3186.328369140625	186.5020446777344	-378.3609924316406	-2551.23486328125	701.1524047851562	-126.4380645751953	-2445.203857421875	633.4755249023438	-169.6144256591797	-2523.453125	605.6344604492188	-147.400634765625	-2821.487060546875	565.1134033203125	-433.4471740722656	-2472.50537109375	547.8679809570312	-154.7668762207031	-2896.763916015625	484.8819580078125	-434.5849609375	-2987.22705078125	439.5802612304688	-418.2644348144531	-2422.220458984375	441.1223754882812	-148.3795471191406	-3214.043701171875	262.0204162597656	-425.1591796875	-2503.2939453125	415.1698303222656	-159.5856170654297	-3196.9921875	422.3201904296875	-289.2550048828125	-2394.904052734375	342.0159912109375	-158.94482421875	-2473.498291015625	323.9694213867188	-170.4629974365234	-3156.88427734375	397.9545288085938	-387.7387390136719	-2375.995849609375	160.5640411376953	-183.0575103759766	-2168.80810546875	206.4089813232422	-189.1758728027344	-2408.74267578125	113.4495620727539	-242.9530334472656	-2379.314697265625	98.07553100585938	-272.3027954101562	-2395.577880859375	85.959716796875	-218.6591491699219	-3208.7646484375	438.4054565429688	-342.067138671875
5	0.02	-2489.451416015625	1479.978759765625	-458.1620788574219	-2564.225341796875	1485.672119140625	-177.5923614501953	-2557.665283203125	1026.160766601562	-448.2984008789062	-2546.688720703125	1032.055419921875	-175.462646484375	-2522.788330078125	971.2190551757812	-425.2630004882812	-3152.589111328125	447.0745849609375	-314.1789855957031	-2520.547119140625	990.07275390625	-196.8835144042969	-2673.6513671875	926.1265258789062	-468.4783325195312	-2646.10498046875	908.748779296875	-134.5142059326172	-2690.40380859375	1034.967895507812	-319.1442260742188	-2690.2294921875	695.1268920898438	-466.3957824707031	-2995.79443359375	514.514892578125	-403.1899108886719	-2760.342529296875	723.6109008789062	-438.4086608886719	-2718.185546875	600.6770629882812	-446.1643676757812	-2213.939453125	148.8787841796875	-143.7718658447266	-2908.33544921875	557.1793212890625	-425.5597534179688	-2789.01513671875	630.5411376953125	-420.2789306640625	-2459.2158203125	722.3202514648438	-142.292236328125	-3172.193603515625	194.6643829345703	-378.4684448242188	-2533.635009765625	697.2034912109375	-126.3497619628906	-2428.02392578125	629.923095703125	-170.0108337402344	-2504.426513671875	600.905517578125	-147.7911224365234	-2796.91650390625	561.7014770507812	-434.6888427734375	-2454.69873046875	545.0076904296875	-156.9321136474609	-2874.03076171875	483.2793273925781	-435.4806213378906	-2966.234375	441.2466430664062	-418.9737548828125	-2401.528076171875	439.74951171875	-150.2163391113281	-3197.0263671875	271.9570007324219	-424.8411560058594	-2482.990966796875	412.6800231933594	-160.2692413330078	-3176.31591796875	431.8276977539062	-290.2107238769531	-2373.6142578125	340.4430541992188	-160.6391906738281	-2452.28515625	321.9627075195312	-171.6741333007812	-3136.912353515625	405.5776062011719	-388.4723205566406	-2353.36572265625	159.1190490722656	-184.3428955078125	-2147.53271484375	207.5564727783203	-190.8369750976562	-2388.194580078125	111.6275939941406	-247.0241851806641	-2356.06982421875	96.17591094970705	-273.39599609375	-2373.178955078125	84.77291107177734	-220.5063171386719	-3187.988037109375	448.0382080078125	-342.6220703125
